<?xml version="1.0" standalone="no"?><svg xmlns="http://www.w3.org/2000/svg" viewBox="0 0 1440 320"><path fill="#0099ff" fill-opacity="1" d="M0,96L17.1,122.7C34.3,149,69,203,103,234.7C137.1,267,171,277,206,272C240,267,274,245,309,208C342.9,171,377,117,411,122.7C445.7,128,480,192,514,218.7C548.6,245,583,235,617,240C651.4,245,686,267,720,234.7C754.3,203,789,117,823,122.7C857.1,128,891,224,926,234.7C960,245,994,171,1029,128C1062.9,85,1097,75,1131,85.3C1165.7,96,1200,128,1234,154.7C1268.6,181,1303,203,1337,224C1371.4,245,1406,267,1423,277.3L1440,288L1440,320L1422.9,320C1405.7,320,1371,320,1337,320C1302.9,320,1269,320,1234,320C1200,320,1166,320,1131,320C1097.1,320,1063,320,1029,320C994.3,320,960,320,926,320C891.4,320,857,320,823,320C788.6,320,754,320,720,320C685.7,320,651,320,617,320C582.9,320,549,320,514,320C480,320,446,320,411,320C377.1,320,343,320,309,320C274.3,320,240,320,206,320C171.4,320,137,320,103,320C68.6,320,34,320,17,320L0,320Z"></path></svg>